<?xml version="1.0" standalone="no"?>
<!DOCTYPE svg PUBLIC "-//W3C//DTD SVG 20010904//EN"
 "http://www.w3.org/TR/2001/REC-SVG-20010904/DTD/svg10.dtd">
<svg version="1.0" xmlns="http://www.w3.org/2000/svg"
 width="500.000000pt" height="500.000000pt" viewBox="0 0 500.000000 500.000000"
 preserveAspectRatio="xMidYMid meet">
<metadata>
Created by potrace 1.11, written by Peter Selinger 2001-2013
</metadata>
<g transform="translate(0.000000,500.000000) scale(0.100000,-0.100000)"
fill="#000000" stroke="none">
<path d="M2594 3648 c-16 -24 -44 -59 -61 -78 -18 -19 -33 -39 -33 -43 0 -5
-4 -5 -10 -2 -5 3 -10 -1 -10 -9 0 -9 -7 -16 -15 -16 -8 0 -15 -4 -15 -8 0
-21 -179 -129 -210 -127 -8 0 -17 -2 -20 -5 -12 -14 -110 -48 -115 -40 -3 5
-18 2 -33 -5 -15 -8 -40 -16 -57 -19 -16 -2 -30 -5 -30 -6 0 -2 -86 -12 -117
-14 -16 0 -28 -4 -28 -8 0 -5 -8 -8 -18 -8 -26 0 -69 -51 -67 -80 2 -41 -35
-107 -97 -172 -10 -10 -18 -23 -18 -29 0 -5 -4 -8 -9 -5 -5 3 -12 -1 -15 -10
-3 -8 -27 -24 -52 -36 -38 -16 -48 -18 -55 -7 -7 12 -9 11 -9 0 0 -11 -4 -9
-15 5 -8 10 -15 15 -16 9 -1 -5 -3 -14 -4 -20 -2 -5 -3 -18 -4 -28 -1 -11 -6
-15 -12 -11 -7 4 -30 9 -53 12 -23 2 -44 9 -47 14 -4 7 -9 7 -13 0 -7 -12 -46
-4 -46 9 0 5 -7 5 -17 2 -10 -4 -14 -2 -10 4 4 7 0 10 -10 8 -10 -2 -18 -4
-18 -5 0 -1 -10 -3 -22 -6 -13 -2 -23 0 -23 5 0 6 -9 8 -20 6 -11 -2 -20 0
-20 6 0 5 -5 9 -11 9 -15 0 -89 71 -89 86 0 7 -6 14 -14 17 -22 9 -65 88 -70
130 -3 21 -10 45 -16 52 -18 22 -70 45 -100 45 -15 0 -30 3 -34 7 -3 4 -19 8
-34 9 -36 4 -97 12 -97 14 0 2 -34 10 -60 15 -11 2 -20 4 -20 5 0 1 -9 3 -20
5 -12 2 -39 12 -60 21 -22 10 -49 18 -60 19 -24 2 -90 39 -142 80 -51 40 -173
158 -173 168 0 4 -5 13 -10 20 -6 7 -17 20 -24 31 -11 16 -13 16 -13 2 0 -9 4
-16 8 -16 4 0 6 -9 4 -20 -2 -11 0 -20 4 -20 5 0 14 -15 21 -32 16 -41 76
-127 104 -150 12 -10 16 -18 8 -18 -14 0 -122 70 -122 79 0 4 -16 15 -35 25
-19 11 -32 24 -28 30 3 6 2 8 -2 3 -5 -4 -22 5 -38 20 -26 25 -28 25 -18 6 6
-13 16 -23 21 -23 6 0 9 -3 8 -7 -4 -14 35 -66 90 -120 35 -34 47 -51 34 -48
-27 5 -119 52 -127 65 -7 12 -25 13 -25 2 0 -11 127 -141 133 -136 2 2 14 -7
27 -21 l24 -25 -35 6 c-19 4 -40 11 -46 17 -7 5 -13 7 -13 3 0 -4 -18 3 -40
14 -62 31 -39 1 35 -48 36 -23 69 -42 75 -42 5 0 10 -4 10 -10 0 -5 9 -10 19
-10 11 0 23 -4 26 -10 3 -5 15 -10 26 -10 10 0 19 -5 19 -11 0 -7 -16 -9 -47
-5 -75 9 -87 11 -100 19 -8 5 -13 3 -13 -6 0 -14 107 -74 122 -69 5 1 8 -2 8
-8 0 -6 3 -9 8 -8 4 1 27 -5 51 -12 33 -11 39 -15 25 -20 -18 -6 -41 -6 -126
4 -42 4 -42 -9 0 -26 15 -6 29 -12 32 -13 3 0 29 -9 59 -19 29 -10 64 -18 77
-18 13 0 24 -4 24 -9 0 -12 -35 -20 -64 -15 -44 8 -41 -13 4 -29 3 -1 12 -5
20 -8 8 -3 35 -8 60 -10 25 -1 51 -7 59 -11 9 -6 12 -5 8 1 -8 13 53 15 73 3
13 -9 13 -10 0 -11 -8 -1 -18 -1 -23 0 -4 0 -7 -4 -7 -10 0 -6 -7 -9 -15 -6
-8 4 -17 2 -20 -2 -7 -13 29 -20 80 -16 51 3 70 -11 28 -21 -24 -6 -25 -8 -8
-14 11 -4 34 -6 52 -4 23 2 33 -2 33 -12 0 -8 5 -14 10 -14 6 0 10 -10 10 -22
0 -13 4 -18 8 -13 12 17 44 15 38 -2 -3 -8 -6 -17 -6 -19 0 -3 -5 -2 -12 2 -7
5 -8 3 -4 -5 5 -7 14 -10 22 -7 9 3 14 -1 14 -14 0 -15 5 -18 27 -14 15 3 30
7 35 10 14 9 9 -9 -9 -28 -16 -18 -16 -19 18 -13 27 5 32 4 22 -6 -17 -17 -17
-32 -1 -23 21 13 48 11 48 -3 0 -7 -8 -13 -17 -13 -9 0 -13 -3 -10 -7 4 -3 21
-6 39 -5 32 1 32 0 13 -15 -19 -15 -19 -15 10 -10 17 2 37 7 46 11 12 5 18 1
22 -15 6 -22 7 -22 25 -6 22 20 37 22 25 5 -13 -22 -12 -37 3 -31 8 3 14 9 14
14 0 5 7 9 16 9 10 0 14 -5 10 -15 -3 -9 1 -18 9 -21 8 -4 12 -10 9 -15 -3 -5
4 -9 15 -9 11 0 25 -9 31 -20 6 -11 21 -22 34 -26 15 -3 22 -12 22 -27 -1 -15
5 -22 17 -21 13 2 15 -1 7 -11 -8 -10 -8 -15 1 -21 8 -4 9 -3 5 4 -12 20 2 13
29 -14 18 -18 24 -33 20 -47 -2 -12 -2 -16 1 -9 10 22 44 14 45 -10 l0 -23 9
23 c5 12 12 22 15 22 4 0 3 -4 0 -10 -3 -6 1 -7 9 -4 9 3 14 9 11 13 -2 4 9 7
26 6 20 -1 28 2 25 10 -3 8 2 11 14 8 12 -3 20 2 25 16 9 30 19 26 39 -15 9
-20 19 -34 22 -31 3 2 -4 21 -16 42 -12 21 -19 45 -17 54 3 13 5 13 12 -4 5
-11 11 -22 15 -25 3 -3 10 -16 16 -30 l11 -25 0 28 c0 15 -3 27 -7 27 -4 0
-10 15 -12 34 -3 28 0 35 23 45 15 6 29 21 32 33 5 19 8 20 23 7 16 -13 17
-12 12 8 -4 17 -2 20 10 16 11 -5 14 -2 9 9 -8 22 2 29 24 18 22 -12 39 8 18
21 -23 15 0 10 31 -6 27 -14 44 -5 20 10 -6 4 -7 11 -4 17 4 7 9 7 13 -1 4 -6
23 -14 41 -18 33 -6 34 -5 20 12 -14 17 -13 18 13 13 30 -6 47 6 22 16 -22 8
-18 25 5 21 11 -2 24 -6 29 -10 5 -3 12 -1 16 5 3 5 1 10 -4 10 -6 0 -11 5
-11 10 0 6 14 8 33 5 17 -3 28 -2 22 2 -17 13 -41 47 -28 40 18 -11 83 -15 83
-5 0 4 -5 8 -11 8 -5 0 -7 5 -4 11 4 6 13 8 21 5 7 -3 16 -1 19 4 3 5 -4 12
-16 15 -17 6 -18 9 -8 16 8 4 19 3 26 -3 9 -7 13 -7 13 1 0 7 4 9 10 6 5 -3 7
0 4 8 -3 8 3 17 13 21 15 6 15 8 3 17 -12 7 -9 9 10 8 40 -3 97 3 78 8 -10 2
-18 9 -18 14 0 6 -5 7 -12 3 -6 -4 -8 -3 -5 3 4 6 27 9 52 8 26 -2 58 1 73 5
l27 8 -25 1 c-26 2 -82 29 -65 32 6 1 51 3 100 5 55 1 105 9 129 19 21 9 36
18 34 20 -2 2 -25 5 -51 6 -28 2 -46 7 -44 13 2 6 10 11 18 11 46 2 199 60
199 75 0 11 -44 6 -52 -5 -5 -6 -8 -5 -8 3 0 7 -5 10 -11 6 -16 -9 -89 -12
-89 -3 0 4 17 13 38 20 20 7 56 20 80 30 23 10 46 19 50 19 4 1 11 8 15 16 4
8 15 14 22 14 8 0 15 4 15 8 0 9 -70 9 -85 0 -12 -6 -75 -9 -75 -2 0 2 24 15
53 28 58 26 188 106 172 106 -5 0 -3 5 5 10 8 5 10 10 4 10 -6 0 -14 -3 -18
-7 -4 -5 -12 -9 -17 -9 -5 -1 -11 -3 -14 -4 -3 -1 -8 -3 -12 -5 -5 -1 -15 -4
-23 -8 -8 -3 -28 -8 -45 -10 l-30 -5 35 27 c44 33 150 141 150 153 0 4 -4 8
-10 8 -5 0 -10 -4 -10 -10 0 -5 -6 -10 -14 -10 -8 0 -16 -3 -18 -7 -3 -9 -76
-45 -97 -49 -7 -1 -3 9 10 23 13 15 31 34 39 44 8 9 26 30 40 46 27 31 60 79
60 88 0 3 -5 5 -11 5 -5 0 -7 -4 -4 -10 3 -5 0 -10 -9 -10 -8 0 -16 -4 -18 -8
-1 -5 -28 -27 -58 -50 -30 -23 -60 -46 -66 -51 -52 -42 -80 -38 -39 6 19 20
35 41 35 46 0 4 12 24 26 43 15 19 23 34 20 34 -4 0 1 11 10 25 9 14 13 25 10
25 -4 0 0 14 9 30 22 43 13 37 -21 -12z"/>
<path d="M1440 3085 c7 -8 7 -16 2 -19 -6 -3 -15 1 -22 9 -17 21 -30 19 -30
-5 0 -11 7 -20 16 -20 8 0 12 -5 9 -10 -4 -6 -11 -8 -16 -5 -13 9 -11 -39 3
-53 7 -7 9 -12 4 -12 -4 0 0 -7 8 -16 9 -8 13 -20 10 -26 -4 -5 5 -2 20 7 14
10 26 21 26 26 0 5 5 9 11 9 17 0 48 43 49 66 0 24 -41 56 -78 60 -18 2 -21 0
-12 -11z"/>
<path d="M2369 2819 c-39 -14 -65 -77 -50 -121 19 -59 94 -86 146 -52 51 34
51 122 -2 164 -28 22 -53 24 -94 9z m82 -36 c13 -35 11 -105 -5 -125 -18 -25
-52 -22 -70 4 -27 38 -17 127 17 149 17 12 48 -3 58 -28z m-99 -55 c-3 -40 -7
-56 -13 -47 -12 19 -11 66 1 90 6 10 12 19 13 19 1 0 0 -28 -1 -62z m138 -3
c0 -16 -4 -36 -9 -43 -5 -8 -8 8 -8 42 1 32 4 51 9 44 4 -7 8 -26 8 -43z"/>
<path d="M2667 2823 c-11 -11 -8 -193 3 -193 6 0 10 30 10 70 0 39 3 70 8 70
4 0 29 -32 56 -70 27 -38 53 -67 58 -64 11 7 8 173 -3 180 -5 3 -9 -19 -9 -48
l-1 -53 -22 29 c-30 41 -75 86 -85 86 -5 0 -12 -3 -15 -7z m49 -36 c51 -60 93
-127 79 -127 -2 0 -23 26 -46 58 -23 31 -51 65 -63 74 -16 14 -18 18 -5 18 8
0 24 -10 35 -23z"/>
<path d="M3169 2828 c0 -2 -2 -47 -3 -100 l-3 -98 66 2 c46 1 54 3 26 5 -22 3
-42 9 -45 14 -11 17 2 80 15 76 6 -3 18 -1 26 4 10 6 7 9 -13 9 -26 0 -28 3
-28 38 0 38 1 39 36 40 63 2 51 12 -14 12 -34 0 -62 -1 -63 -2z m25 -70 c-1
-24 -2 -60 -3 -81 -1 -21 -4 -36 -8 -34 -5 3 -7 42 -5 86 2 45 7 79 11 77 4
-3 6 -24 5 -48z"/>
<path d="M3495 2818 c-2 -7 -15 -49 -29 -93 -29 -89 -30 -95 -17 -95 5 0 11
14 15 30 5 27 9 30 45 30 34 0 40 -4 50 -30 7 -20 17 -30 30 -30 26 0 26 6 -3
77 -13 32 -29 73 -36 91 -13 32 -47 45 -55 20z m55 -55 c0 -6 9 -33 20 -59 11
-26 19 -51 18 -56 -3 -9 -68 141 -68 157 0 13 29 -28 30 -42z m-16 -40 c7 -20
4 -23 -23 -23 -35 0 -35 -1 -19 52 11 39 12 39 24 16 6 -13 15 -33 18 -45z"/>
<path d="M3814 2811 c-58 -35 -65 -107 -14 -153 25 -23 39 -28 85 -28 l55 0 0
34 c0 55 -41 57 -44 2 -1 -27 -47 -34 -66 -10 -15 17 -18 81 -7 126 9 33 40
44 82 28 28 -9 29 -9 11 5 -27 20 -65 19 -102 -4z m-12 -78 c-4 -55 -22 -64
-22 -12 0 27 18 76 24 67 1 -1 0 -27 -2 -55z m128 -74 c0 -10 -4 -19 -10 -19
-5 0 -10 12 -10 26 0 14 4 23 10 19 6 -3 10 -15 10 -26z"/>
<path d="M4099 2816 c0 -9 0 -50 0 -91 0 -41 0 -79 0 -85 1 -6 29 -9 69 -8 55
1 59 2 20 5 l-47 4 -3 92 c-3 78 -6 92 -20 95 -11 2 -18 -3 -19 -12z m28 -91
c-1 -47 -5 -85 -9 -85 -4 0 -8 41 -8 91 0 50 4 88 9 85 5 -3 8 -44 8 -91z"/>
<path d="M4387 2823 c-4 -3 -7 -48 -7 -100 l0 -93 68 2 c56 1 60 2 19 5 l-48
4 3 42 c3 36 6 42 26 41 12 0 22 3 22 8 0 4 -10 8 -23 8 -20 0 -23 5 -22 38 0
36 2 37 40 43 38 6 37 6 -16 7 -31 1 -59 -1 -62 -5z m23 -92 c0 -44 -4 -82 -9
-85 -5 -3 -9 32 -9 79 1 47 5 85 9 85 5 0 9 -36 9 -79z"/>
<path d="M4679 2816 c-40 -30 -28 -81 27 -111 20 -10 34 -26 34 -37 0 -19 -7
-22 -52 -19 -16 0 -28 -3 -28 -9 0 -18 86 -12 103 8 28 31 20 57 -30 100 -39
32 -45 42 -35 54 7 9 23 13 44 10 18 -2 31 -2 28 1 -12 12 -76 15 -91 3z m91
-134 c0 -16 -20 -16 -20 1 -1 6 -19 24 -40 39 -22 16 -40 36 -40 46 0 15 11 9
50 -27 28 -25 50 -52 50 -59z"/>
<path d="M2850 2426 c0 -18 58 -168 69 -179 17 -17 40 1 52 42 7 23 15 41 19
41 4 0 15 -20 24 -45 12 -31 23 -45 37 -45 14 0 24 18 44 85 15 47 24 91 22
98 -5 13 -5 13 -32 -77 l-17 -59 -25 64 c-30 74 -32 78 -61 84 -24 4 -27 -6
-12 -34 6 -13 5 -33 -3 -62 l-13 -44 -16 30 c-9 17 -21 48 -27 71 -9 33 -15
40 -36 40 -14 0 -25 -5 -25 -10z m67 -86 c17 -44 27 -82 23 -85 -11 -7 -14 -2
-49 89 -18 47 -25 76 -18 76 7 0 26 -36 44 -80z m106 23 c32 -72 42 -113 29
-113 -6 0 -24 36 -41 81 -35 90 -34 89 -22 89 4 0 20 -26 34 -57z"/>
<path d="M3287 2433 c-4 -3 -7 -48 -7 -100 0 -90 1 -93 23 -93 21 0 22 3 22
93 1 83 -5 106 -26 107 -3 0 -9 -3 -12 -7z m23 -98 c0 -47 -4 -85 -8 -85 -6 0
-9 156 -3 168 7 14 11 -12 11 -83z"/>
<path d="M3489 2403 c-5 -51 4 -171 12 -158 4 6 7 36 7 68 0 32 2 61 5 63 2 3
28 -27 56 -65 28 -39 53 -71 56 -71 3 0 5 46 5 103 0 56 -4 96 -8 89 -5 -6 -7
-33 -5 -59 l4 -48 -53 58 c-30 31 -59 57 -65 57 -6 0 -12 -17 -14 -37z m57
-16 c16 -19 39 -46 52 -60 12 -15 22 -35 21 -45 0 -13 -4 -12 -17 8 -9 14 -36
48 -60 77 -46 57 -42 74 4 20z"/>
<path d="M3854 2430 c-33 -13 -64 -59 -64 -96 0 -23 9 -41 31 -64 29 -28 36
-31 88 -28 56 3 56 3 57 36 0 27 -3 32 -23 32 -19 0 -23 -5 -23 -30 0 -27 -3
-30 -30 -30 -40 0 -54 29 -47 97 6 61 22 87 49 80 10 -3 18 -1 18 4 0 11 -28
11 -56 -1z m-26 -85 c-1 -47 -12 -60 -21 -24 -5 20 7 69 17 69 3 0 5 -20 4
-45z m122 -71 c0 -14 -4 -23 -9 -20 -7 5 -8 23 -2 44 4 12 11 -3 11 -24z"/>
<path d="M3920 2430 c0 -6 7 -10 15 -10 8 0 15 2 15 4 0 2 -7 6 -15 10 -8 3
-15 1 -15 -4z"/>
<path d="M4143 2428 c-44 -21 -34 -77 22 -109 20 -12 35 -29 35 -40 0 -20 -7
-23 -53 -20 -17 1 -26 -3 -22 -9 3 -5 23 -10 44 -10 64 0 95 60 50 98 -77 62
-75 60 -58 77 12 12 21 14 42 6 17 -7 27 -7 27 -1 0 6 -3 10 -7 11 -5 0 -19 2
-33 4 -14 2 -35 -1 -47 -7z m65 -100 c12 -10 22 -25 22 -34 0 -14 -5 -12 -24
7 -13 13 -35 32 -50 42 -14 10 -26 26 -26 37 0 16 3 15 28 -8 16 -15 38 -35
50 -44z"/>
<path d="M1195 2400 c3 -5 8 -10 11 -10 2 0 4 5 4 10 0 6 -5 10 -11 10 -5 0
-7 -4 -4 -10z"/>
<path d="M1210 2361 c0 -6 4 -12 8 -15 5 -3 9 1 9 9 0 8 -4 15 -9 15 -4 0 -8
-4 -8 -9z"/>
<path d="M1250 2345 c0 -8 4 -15 10 -15 5 0 7 7 4 15 -4 8 -8 15 -10 15 -2 0
-4 -7 -4 -15z"/>
<path d="M1389 2313 c-13 -16 -12 -17 4 -4 9 7 17 15 17 17 0 8 -8 3 -21 -13z"/>
<path d="M1235 2311 c-3 -5 -1 -12 5 -16 5 -3 10 1 10 9 0 18 -6 21 -15 7z"/>
<path d="M1179 2303 c-1 -4 -1 -11 0 -15 0 -5 -7 -8 -16 -9 -14 0 -12 -3 5
-10 13 -5 20 -14 17 -20 -4 -6 2 -13 14 -16 13 -3 21 -14 22 -27 0 -20 1 -20
8 -1 5 11 6 24 3 29 -2 4 2 12 9 17 10 6 8 9 -9 9 -16 0 -21 -4 -16 -12 6 -10
4 -10 -8 0 -9 7 -14 21 -11 31 3 10 0 22 -6 25 -6 4 -12 4 -12 -1z"/>
<path d="M1517 2298 c10 -14 15 -58 7 -58 -10 0 -34 29 -34 40 0 6 -5 8 -10 5
-6 -4 -7 -12 -3 -18 12 -20 11 -52 -3 -65 -10 -9 -14 -7 -20 11 -4 12 -7 30
-5 40 1 9 -1 17 -6 17 -4 0 -8 -24 -7 -52 0 -29 -4 -58 -8 -65 -5 -6 -4 -14 2
-18 7 -4 14 2 17 14 3 12 13 21 25 21 14 0 18 5 14 16 -3 8 -2 12 4 9 10 -6
15 9 10 30 -1 6 2 7 5 3 11 -11 47 11 39 24 -4 5 0 14 7 19 11 7 10 11 -6 23
-24 19 -41 21 -28 4z"/>
<path d="M1277 2293 c-10 -9 -9 -23 1 -23 5 0 9 7 9 15 0 17 -1 18 -10 8z"/>
<path d="M1386 2273 c-6 -14 -5 -15 5 -6 7 7 10 15 7 18 -3 3 -9 -2 -12 -12z"/>
<path d="M1315 2240 c3 -5 8 -10 11 -10 2 0 4 5 4 10 0 6 -5 10 -11 10 -5 0
-7 -4 -4 -10z"/>
<path d="M1388 2233 c-3 -11 -1 -27 3 -36 6 -10 5 -18 -1 -22 -5 -3 -10 -23
-10 -44 0 -21 -5 -53 -11 -71 l-12 -32 -13 38 c-8 22 -14 65 -15 98 -1 34 -5
53 -9 46 -5 -7 -7 -22 -4 -33 2 -11 -2 -29 -8 -41 -11 -20 -11 -20 -18 -1 -4
10 -6 38 -5 62 1 23 -3 39 -8 36 -4 -3 -6 -7 -3 -10 3 -4 -2 -13 -12 -22 -9
-9 -18 -22 -20 -30 -3 -12 -1 -12 14 0 16 12 17 12 11 -3 -3 -10 -2 -18 4 -18
6 0 8 -3 5 -8 -5 -8 21 -47 32 -47 4 0 6 -3 5 -7 -2 -5 2 -8 7 -8 5 0 10 -9
10 -21 0 -11 5 -29 11 -40 8 -16 13 -18 24 -9 15 12 30 66 26 89 -1 7 2 10 8
6 7 -4 8 0 4 11 -5 13 -3 15 7 9 9 -5 11 -4 6 4 -4 6 -12 8 -18 5 -6 -4 -8 1
-3 16 11 34 12 64 5 85 -6 18 -7 18 -12 -2z"/>
<path d="M2335 2089 c-24 -5 -25 -7 -7 -8 20 -1 22 -6 22 -56 0 -30 3 -55 8
-55 4 0 6 27 5 59 -1 55 0 59 19 56 11 -3 18 -1 14 2 -9 10 -27 10 -61 2z"/>
<path d="M2525 2075 c-14 -13 -25 -32 -25 -42 0 -27 28 -63 48 -62 13 0 12 3
-5 11 -38 18 -35 74 6 105 9 7 12 13 8 13 -4 0 -19 -11 -32 -25z"/>
<path d="M2586 2079 c34 -39 36 -58 9 -85 -13 -13 -20 -24 -15 -24 16 0 50 39
50 56 0 24 -18 52 -43 65 l-22 12 21 -24z"/>
<path d="M2745 2046 c4 -64 10 -76 33 -76 16 1 16 1 0 11 -13 7 -18 23 -18 59
0 27 -4 52 -10 55 -6 3 -8 -15 -5 -49z"/>
<path d="M2945 2034 c0 -35 3 -64 8 -64 4 0 7 15 7 33 l1 32 29 -35 c32 -39
40 -34 13 7 -13 19 -14 28 -5 31 17 5 15 37 -3 52 -17 14 -21 0 -4 -17 14 -14
3 -33 -18 -33 -11 0 -14 7 -11 24 3 14 0 27 -6 29 -7 3 -11 -17 -11 -59z"/>
<path d="M3145 2086 c-23 -17 -14 -43 19 -56 30 -11 37 -22 26 -39 -5 -8 -18
-12 -34 -9 -14 3 -23 1 -20 -3 8 -14 51 -10 64 6 17 20 6 43 -25 55 -32 12
-30 45 2 44 12 0 20 3 17 8 -8 12 -28 10 -49 -6z"/>
<path d="M3350 2090 c0 -6 5 -10 10 -10 6 0 10 -7 10 -15 0 -21 -28 -19 -33 3
-2 9 -3 6 -2 -7 2 -14 -2 -32 -8 -41 -15 -24 -2 -50 25 -49 l23 0 -22 9 c-13
5 -23 16 -23 24 0 17 27 29 35 16 4 -6 11 -10 16 -10 6 0 7 6 2 12 -4 7 -6 25
-5 39 2 17 -3 29 -12 32 -9 4 -16 2 -16 -3z"/>
<path d="M3558 2087 c-9 -6 -8 -7 5 -3 18 6 19 5 19 -66 0 -68 16 -60 20 10 2
39 7 56 16 55 6 -2 12 1 12 5 0 12 -56 11 -72 -1z"/>
<path d="M3740 2033 c0 -36 4 -63 10 -63 6 0 8 11 6 25 -7 36 7 38 29 4 11
-16 24 -29 28 -29 5 0 -1 13 -12 28 -18 26 -19 30 -4 45 22 22 10 44 -26 49
l-31 5 0 -64z m50 27 c0 -13 -7 -20 -18 -20 -11 0 -18 7 -18 20 0 13 7 20 18
20 11 0 18 -7 18 -20z"/>
<path d="M4215 2089 c-4 -6 -5 -12 -2 -15 2 -3 7 2 10 11 7 17 1 20 -8 4z"/>
<path d="M4358 2093 c-15 -4 -18 -16 -18 -64 l0 -59 38 1 c30 2 32 3 10 6 -16
2 -28 11 -28 19 0 8 0 17 -1 22 0 4 10 10 23 14 21 6 21 6 2 7 -29 1 -35 10
-23 33 7 13 16 17 30 13 10 -4 19 -3 19 2 0 10 -25 12 -52 6z"/>
<path d="M4528 2036 l-3 -66 40 2 c38 1 38 1 7 5 l-33 4 2 55 c2 29 0 56 -3
60 -4 3 -8 -24 -10 -60z"/>
<path d="M2810 2080 c0 -5 5 -10 10 -10 6 0 10 5 10 10 0 6 -4 10 -10 10 -5 0
-10 -4 -10 -10z"/>
<path d="M3971 2083 c-1 -6 -4 -20 -7 -30 -4 -12 -3 -14 3 -6 6 9 13 2 23 -25
8 -20 13 -40 12 -44 -1 -5 3 -8 8 -8 6 0 10 6 9 13 0 17 -47 114 -48 100z"/>
<path d="M4153 2035 c11 -30 23 -55 26 -55 9 0 34 70 28 76 -2 3 -7 -7 -11
-21 -9 -36 -21 -31 -35 15 -6 22 -16 40 -20 40 -5 0 0 -25 12 -55z"/>
<path d="M3399 2021 c-13 -29 -14 -38 -4 -35 7 3 16 1 20 -5 3 -6 11 -11 17
-11 6 0 3 8 -6 19 -12 13 -15 27 -10 45 9 38 2 32 -17 -13z"/>
<path d="M2814 2035 c3 -8 1 -28 -5 -43 -7 -19 -7 -24 1 -16 14 14 21 74 8 74
-5 0 -8 -7 -4 -15z"/>
<path d="M3941 2004 c-6 -15 -9 -29 -6 -32 3 -3 5 0 5 6 0 7 9 21 20 32 13 13
16 20 7 20 -8 0 -19 -12 -26 -26z"/>
</g>
</svg>
