<?xml version="1.0" standalone="no"?>
<!DOCTYPE svg PUBLIC "-//W3C//DTD SVG 20010904//EN"
 "http://www.w3.org/TR/2001/REC-SVG-20010904/DTD/svg10.dtd">
<svg version="1.0" xmlns="http://www.w3.org/2000/svg"
 width="241.000000pt" height="241.000000pt" viewBox="0 0 241.000000 241.000000"
 preserveAspectRatio="xMidYMid meet">
<metadata>
Created by potrace 1.11, written by Peter Selinger 2001-2013
</metadata>
<g transform="translate(0.000000,241.000000) scale(0.100000,-0.100000)"
fill="#000000" stroke="none">
<path d="M2130 1763 c-35 -52 -126 -129 -184 -157 -101 -48 -133 -58 -255 -82
-145 -28 -171 -41 -171 -87 0 -34 -12 -57 -67 -121 -42 -51 -81 -76 -116 -76
-15 0 -30 -7 -33 -15 -6 -14 -29 -14 -104 1 -14 3 -31 6 -37 6 -7 1 -13 5 -13
9 0 5 -13 6 -29 3 -39 -8 -80 16 -130 75 -42 50 -76 115 -67 130 3 4 -5 17
-17 28 -21 20 -45 27 -187 54 -100 19 -215 63 -269 103 -27 20 -74 64 -105 97
-31 33 -56 57 -56 54 0 -14 41 -85 74 -128 20 -26 32 -47 26 -47 -5 0 -48 30
-96 66 -82 62 -86 63 -59 27 15 -21 46 -57 69 -80 22 -24 37 -43 33 -43 -4 0
-36 14 -70 30 l-62 31 73 -71 c41 -38 69 -70 63 -70 -6 0 -34 9 -62 19 -51 20
-51 20 -33 0 10 -11 54 -38 98 -61 l81 -40 -70 5 c-62 6 -68 5 -51 -8 10 -8
50 -26 87 -41 38 -14 69 -28 69 -31 0 -3 -30 -3 -66 0 -36 2 -62 1 -57 -3 14
-13 122 -50 145 -50 31 0 10 -18 -27 -22 l-30 -4 28 -12 c16 -7 57 -12 92 -12
70 0 91 -13 48 -28 -25 -9 -22 -11 27 -12 51 -1 53 -2 36 -15 -18 -14 -17 -15
25 -15 32 0 40 -3 29 -10 -13 -8 -12 -10 3 -10 10 0 15 -4 12 -10 -4 -6 6 -10
22 -10 27 -1 27 -1 9 -15 -19 -15 -19 -15 5 -15 20 0 21 -2 9 -11 -11 -8 -7
-9 18 -6 24 3 32 0 28 -10 -3 -7 1 -13 10 -13 9 0 12 -5 8 -11 -5 -8 1 -10 20
-7 28 6 33 -1 14 -21 -11 -11 -9 -12 9 -6 19 5 22 3 16 -11 -7 -18 -7 -18 46
4 10 4 13 1 8 -11 -5 -15 -3 -16 13 -7 26 14 30 13 23 -6 -5 -14 -3 -15 15 -5
18 10 22 9 22 -4 0 -8 5 -15 11 -15 5 0 8 -4 5 -9 -3 -5 6 -8 21 -8 15 0 29
-6 31 -12 2 -6 10 -18 19 -26 8 -8 11 -21 8 -27 -4 -7 2 -4 12 7 21 22 43 30
43 15 0 -5 6 -9 13 -7 8 1 12 -11 12 -38 0 -39 24 -73 33 -47 2 7 7 10 11 8 3
-2 5 14 4 37 l-2 42 12 -35 c7 -19 18 -36 25 -38 10 -2 10 3 -2 20 -9 12 -16
29 -16 38 1 8 7 3 16 -12 21 -39 26 -35 8 7 -20 49 -18 63 16 97 34 34 37 34
44 -5 4 -22 1 -27 -15 -27 -10 0 -19 -4 -19 -10 0 -5 19 -3 45 4 25 8 45 12
45 9 0 -2 7 2 15 11 8 8 15 20 15 27 0 10 3 10 12 1 17 -17 28 -15 21 5 -5 13
-2 15 12 9 10 -4 21 -2 25 5 6 8 13 8 30 -1 20 -11 22 -10 17 4 -6 14 -3 16
14 11 18 -6 19 -4 10 13 -9 17 -7 19 16 14 18 -3 24 -1 19 7 -5 7 1 11 15 11
18 0 19 2 9 15 -11 13 -8 14 20 8 24 -4 31 -3 26 5 -4 7 -1 12 10 12 13 0 14
3 4 15 -11 13 -8 15 14 15 16 0 25 4 21 10 -3 6 -1 10 5 10 6 0 8 5 5 10 -4 6
9 10 31 10 31 0 35 2 24 15 -11 13 -5 15 41 16 l54 1 -33 12 c-47 16 -30 26
47 26 36 1 80 7 96 15 l30 13 -37 1 c-52 1 -56 18 -5 25 23 4 64 17 92 29 l49
23 -67 -4 c-37 -2 -67 -2 -67 1 0 3 32 18 70 33 99 39 108 54 28 47 l-63 -5
70 36 c39 19 84 47 100 60 l30 25 -53 -19 c-79 -30 -82 -25 -19 31 31 28 62
60 68 71 10 18 9 19 -13 4 -13 -8 -40 -22 -62 -31 l-39 -16 50 58 c77 91 84
102 48 75 -58 -43 -144 -102 -150 -102 -3 0 10 21 29 46 36 46 81 132 74 139
-2 2 -14 -12 -28 -32z m-1002 -773 c17 -11 32 -22 32 -25 0 -4 -4 -3 -10 0 -6
3 -7 -1 -4 -9 3 -9 10 -13 15 -10 5 3 9 -1 9 -9 0 -8 -11 -18 -25 -21 -31 -8
-54 2 -34 15 11 7 11 9 1 9 -7 0 -11 4 -8 9 3 5 -1 14 -9 21 -16 13 -21 40 -7
40 4 0 22 -9 40 -20z m238 -5 c-3 -8 0 -16 7 -18 7 -2 8 -8 4 -13 -4 -5 -12
-2 -17 6 -13 21 -12 53 1 45 6 -4 8 -13 5 -20z m-276 -25 c0 -5 -7 -10 -15
-10 -8 0 -15 5 -15 10 0 6 7 10 15 10 8 0 15 -4 15 -10z m131 -143 c-8 -8 -11
-1 -11 24 0 46 14 60 18 19 2 -18 -1 -37 -7 -43z"/>
<path d="M1306 1353 c-6 -14 -5 -15 5 -6 7 7 10 15 7 18 -3 3 -9 -2 -12 -12z"/>
<path d="M1265 1319 c-4 -6 -4 -13 -1 -16 3 -4 6 -1 6 6 0 7 10 9 28 5 21 -4
24 -3 12 5 -19 14 -37 14 -45 0z"/>
<path d="M1287 904 c3 -7 10 -11 15 -8 6 4 8 -2 3 -15 -4 -13 -2 -21 5 -21 6
0 8 4 5 10 -3 5 3 15 15 22 28 18 25 23 -14 25 -26 1 -33 -2 -29 -13z"/>
<path d="M1137 883 c-11 -10 -8 -20 7 -26 10 -4 12 0 9 14 -6 21 -7 22 -16 12z"/>
<path d="M1181 880 c-1 -8 -4 -26 -7 -40 -5 -22 -4 -23 6 -7 6 10 9 28 7 40
-2 12 -5 15 -6 7z"/>
<path d="M1085 771 c-3 -5 -1 -12 5 -16 5 -3 10 1 10 9 0 18 -6 21 -15 7z"/>
<path d="M1281 688 c1 -18 2 -19 6 -5 2 9 9 14 15 11 7 -4 8 -2 4 4 -12 20
-26 13 -25 -10z"/>
<path d="M1191 654 c0 -11 3 -14 6 -6 3 7 2 16 -1 19 -3 4 -6 -2 -5 -13z"/>
</g>
</svg>
